<svg id="copy_file" data-name="copy file" xmlns="http://www.w3.org/2000/svg" xmlns:xlink="http://www.w3.org/1999/xlink" width="24.761" height="30" viewBox="0 0 24.761 30">
  <defs>
    <clipPath id="clip-path">
      <rect id="Rectangle_52" data-name="Rectangle 52" width="24.761" height="30" fill="#828282"/>
    </clipPath>
  </defs>
  <g id="Group_249" data-name="Group 249">
    <g id="Group_248" data-name="Group 248" clip-path="url(#clip-path)">
      <path id="Path_43" data-name="Path 43" d="M21.441,0H8.837a3.324,3.324,0,0,0-3.32,3.32v.408h-2.2A3.324,3.324,0,0,0,0,7.048V26.68A3.324,3.324,0,0,0,3.321,30h12.6a3.324,3.324,0,0,0,3.321-3.32v-.408h2.2a3.324,3.324,0,0,0,3.32-3.32V3.32A3.323,3.323,0,0,0,21.441,0M17.1,26.68a1.18,1.18,0,0,1-1.178,1.179H3.321A1.18,1.18,0,0,1,2.142,26.68V7.048A1.18,1.18,0,0,1,3.321,5.869h12.6A1.18,1.18,0,0,1,17.1,7.048Zm5.517-3.728a1.18,1.18,0,0,1-1.179,1.179h-2.2V7.048a3.324,3.324,0,0,0-3.32-3.32H7.659V3.32A1.179,1.179,0,0,1,8.837,2.141h12.6A1.18,1.18,0,0,1,22.619,3.32Z" transform="translate(0 0)" fill="#828282"/>
    </g>
  </g>
</svg>
