<svg id="download_file" data-name="download file" xmlns="http://www.w3.org/2000/svg" xmlns:xlink="http://www.w3.org/1999/xlink" width="27.857" height="30" viewBox="0 0 27.857 30">
  <defs>
    <clipPath id="clip-path">
      <rect id="Rectangle_51" data-name="Rectangle 51" width="27.857" height="30" fill="#828282"/>
    </clipPath>
  </defs>
  <g id="Group_246" data-name="Group 246" clip-path="url(#clip-path)">
    <path id="Path_41" data-name="Path 41" d="M26.786,31.154a1.072,1.072,0,0,0-1.072,1.072v6.428a1.072,1.072,0,0,1-1.072,1.072H3.214a1.072,1.072,0,0,1-1.072-1.072V32.226a1.071,1.071,0,1,0-2.143,0v6.428a3.214,3.214,0,0,0,3.214,3.215H24.643a3.215,3.215,0,0,0,3.215-3.215V32.226a1.072,1.072,0,0,0-1.072-1.072" transform="translate(0 -11.868)" fill="#828282"/>
    <path id="Path_42" data-name="Path 42" d="M24.642,18.528a1.071,1.071,0,0,0-1.489,0l-3.53,3.528V1.072a1.071,1.071,0,1,0-2.143,0V22.056l-3.529-3.528a1.071,1.071,0,0,0-1.515,1.515L17.794,25.4a1.072,1.072,0,0,0,1.515,0l0,0,5.357-5.357a1.07,1.07,0,0,0-.026-1.515" transform="translate(-4.623 0)" fill="#828282"/>
  </g>
</svg>
