<svg id="edit" xmlns="http://www.w3.org/2000/svg" xmlns:xlink="http://www.w3.org/1999/xlink" width="15" height="14.924" viewBox="0 0 15 14.924">
  <defs>
    <clipPath id="clip-path">
      <rect id="Rectangle_61" data-name="Rectangle 61" width="15" height="14.925" fill="#828282"/>
    </clipPath>
  </defs>
  <g id="Group_302" data-name="Group 302" clip-path="url(#clip-path)">
    <path id="Path_47" data-name="Path 47" d="M13.844,10.82a.373.373,0,0,0-.373.373V14.51a1.122,1.122,0,0,1-1.121,1.121H1.868A1.122,1.122,0,0,1,.748,14.51V4.775A1.122,1.122,0,0,1,1.868,3.655H5.185a.374.374,0,0,0,0-.747H1.868A1.871,1.871,0,0,0,0,4.775V14.51a1.87,1.87,0,0,0,1.868,1.868H12.35a1.869,1.869,0,0,0,1.868-1.868V11.193a.373.373,0,0,0-.374-.373" transform="translate(0 -1.454)" fill="#828282"/>
    <path id="Path_48" data-name="Path 48" d="M18.112.493a1.681,1.681,0,0,0-2.378,0L9.069,7.158a.376.376,0,0,0-.1.164L8.1,10.486a.373.373,0,0,0,.46.459l3.164-.876a.37.37,0,0,0,.165-.1L18.55,3.309a1.683,1.683,0,0,0,0-2.378ZM9.883,7.4l5.454-5.454L17.1,3.7,11.642,9.16Zm-.352.705,1.406,1.406-1.944.538Zm8.49-5.325-.4.4L15.866,1.417l.4-.4a.934.934,0,0,1,1.321,0l.438.439a.936.936,0,0,1,0,1.321" transform="translate(-4.042 0)" fill="#828282"/>
  </g>
</svg>
