<?xml version="1.0" encoding="UTF-8"?><svg xmlns="http://www.w3.org/2000/svg" viewBox="0 0 45 45"><defs><style>.d{fill:#828282;}</style></defs><g id="a"/><g id="b"><g id="c"><path class="d" d="M22.5,0C10.07,0,0,10.07,0,22.5c0,7.22,3.46,14,9.31,18.23h.02v.02c7.86,5.66,18.46,5.66,26.32,0l.02-.02c10.07-7.28,12.33-21.35,5.05-31.42C36.5,3.47,29.72,0,22.5,0ZM10.65,39.61v-1.46c0-6.05,4.9-10.96,10.95-10.96h1.79c6.05,0,10.96,4.9,10.96,10.95h0v1.46c-7.13,4.94-16.57,4.94-23.7,0h0Zm11.9-14.1h-.11c-4.11-.02-7.43-3.35-7.44-7.46,0-.19,0-.39,.02-.58,.34-4.12,3.96-7.19,8.09-6.85,3.65,.3,6.55,3.2,6.85,6.86,.02,.19,.02,.38,.02,.58,0,4.11-3.33,7.44-7.44,7.46h0Zm13.48,12.8v-.15c0-5.6-3.68-10.54-9.06-12.13,2.9-1.61,4.7-4.66,4.7-7.98,0-.24-.01-.48-.03-.71-.41-5.05-4.84-8.81-9.89-8.4-4.48,.36-8.03,3.92-8.4,8.4-.02,.24-.03,.48-.03,.72,0,3.32,1.8,6.37,4.7,7.98-5.37,1.59-9.06,6.52-9.06,12.13v.15C.23,30.83-.79,17.69,6.69,8.96,14.16,.22,27.3-.8,36.03,6.67c8.73,7.47,9.76,20.61,2.28,29.35-.7,.82-1.46,1.58-2.28,2.28Z"/></g></g></svg>