<?xml version="1.0" encoding="UTF-8"?><svg xmlns="http://www.w3.org/2000/svg" viewBox="0 0 15 15"><defs><style>.f{fill:#989898;}</style></defs><g id="a"/><g id="b"><g id="c"><g id="d" transform="translate(0.24)"><path id="e" class="f" d="M8.77,7.47L14.74,1.5c.34-.34,.34-.9,0-1.24-.34-.34-.9-.34-1.24,0L7.52,6.23,1.55,.26C1.19-.06,.63-.02,.31,.34c-.29,.33-.29,.83,0,1.16L6.29,7.48,.31,13.45c-.37,.31-.42,.87-.11,1.24,.31,.37,.87,.42,1.24,.11,.04-.03,.08-.07,.11-.11l5.97-5.97,5.97,5.97c.38,.3,.93,.24,1.23-.14,.26-.32,.25-.78,0-1.1l-5.97-5.97Z"/></g></g></g></svg>